<?xml version="1.0" standalone="no"?>
<!DOCTYPE svg PUBLIC "-//W3C//DTD SVG 1.1//EN" "http://www.w3.org/Graphics/SVG/1.1/DTD/svg11.dtd" >
<svg xmlns="http://www.w3.org/2000/svg">
<metadata>
This is a custom SVG font generated by IcoMoon.
<iconset grid="16"></iconset>
</metadata>
<defs>
<font id="media-temple-icons" horiz-adv-x="512" >
<font-face units-per-em="512" ascent="480" descent="-32" />
<missing-glyph horiz-adv-x="512" />
<glyph unicode="&#xe01d;" d="M 256.00,480.00C 114.615,480.00,0.00,365.385,0.00,224.00s 114.613-256.00, 256.00-256.00c 141.385,0.00, 256.00,114.615, 256.00,256.00S 397.385,480.00, 256.00,480.00z M 280.822,137.941
	c-23.26,1.807-33.021,13.328-51.252,24.404C 219.54,109.757, 207.288,59.337, 171.00,33.002
	c-11.202,79.484, 16.447,139.182, 29.285,202.557c-21.892,36.853, 2.635,111.017, 48.81,92.737
	c 56.813-22.474-49.20-137.004, 21.966-151.308c 74.31-14.934, 104.644,128.929, 58.571,175.712
	c-66.579,67.553-193.799,1.54-178.155-95.178c 3.807-23.646, 28.236-30.819, 9.762-63.451c-42.61,9.446-55.325,43.051-53.688,87.856
	c 2.634,73.337, 65.892,124.682, 129.343,131.783c 80.242,8.982, 155.553-29.454, 165.953-104.938
	C 414.553,223.577, 366.623,131.307, 280.822,137.941z"  />
<glyph unicode="&#xe021;" d="M 287.935-32.00L 192.00-32.00 L 192.00,224.00 l-64.00,0.00 l0.00,88.225 l 64.00,0.029l-0.104,51.976C 191.896,436.206, 211.413,480.00, 296.195,480.00l 70.588,0.00 l0.00-88.242 l-44.115,0.00 
	c-33.016,0.00-34.603-12.328-34.603-35.342l-0.131-44.162l 79.345,0.00 l-9.352-88.225L 288.00,224.00L 287.935-32.00z"  />
<glyph unicode="&#xe024;" d="M 512.00,382.791c-18.838-8.354-39.082-14.001-60.33-16.54c 21.686,13.00, 38.343,33.585, 46.186,58.115
	c-20.298-12.039-42.778-20.78-66.705-25.49c-19.16,20.415-46.461,33.17-76.673,33.17c-58.011,0.00-105.044-47.029-105.044-105.039
	c0.00-8.233, 0.929-16.25, 2.72-23.939c-87.30,4.382-164.701,46.20-216.509,109.753c-9.042-15.514-14.223-33.558-14.223-52.809
	c0.00-36.444, 18.544-68.596, 46.73-87.433c-17.219,0.546-33.416,5.271-47.577,13.139c-0.01-0.438-0.01-0.878-0.01-1.321
	c0.00-50.894, 36.209-93.348, 84.261-103.00c-8.813-2.40-18.094-3.686-27.674-3.686c-6.769,0.00-13.349,0.66-19.764,1.886
	c 13.368-41.73, 52.16-72.103, 98.126-72.948c-35.95-28.175-81.243-44.967-130.458-44.967c-8.479,0.00-16.84,0.497-25.058,1.47
	c 46.486-29.805, 101.701-47.197, 161.021-47.197c 193.211,0.00, 298.868,160.062, 298.868,298.872c0.00,4.554-0.103,9.084-0.305,13.59
	C 480.11,343.227, 497.918,361.727, 512.00,382.791z"  />
<glyph unicode="&#xe029;" d="M 487.655,191.031c 1.406,10.40, 2.215,20.973, 2.215,31.736c0.00,129.155-105.271,233.872-235.103,233.872
	c-12.904,0.00-25.555-1.06-37.866-3.08c-22.072,14.384-48.342,22.767-76.612,22.767C 62.766,476.326,0.00,413.518,0.00,336.02
	c0.00-28.198, 8.299-54.394, 22.59-76.389c-1.925-12.017-2.909-24.323-2.909-36.859c0.00-129.176, 105.217-233.882, 235.085-233.882
	c 14.657,0.00, 28.927,1.427, 42.796,3.933c 21.55-13.369, 46.934-21.148, 74.146-21.148C 449.21-28.326, 512.00,34.498, 512.00,111.988
	C 511.997,141.281, 503.04,168.516, 487.655,191.031z M 276.74,50.404c-74.705-3.892-109.664,12.637-141.689,42.691
	c-35.765,33.567-21.398,71.854, 7.74,73.801c 29.122,1.944, 46.607-33.013, 62.15-42.736c 15.524-9.688, 74.594-31.76, 105.794,3.908
	c 33.976,38.828-22.594,58.92-64.059,65.002c-59.203,8.766-133.95,40.792-128.135,103.907c 5.816,63.074, 53.582,95.414, 103.85,99.976
	c 64.077,5.817, 105.791-9.707, 138.785-37.86c 38.15-32.529, 17.508-68.894-6.799-71.82c-24.212-2.909-51.404,53.504-104.791,54.352
	c-55.027,0.864-92.217-57.261-24.286-73.784c 67.966-16.505, 140.75-23.286, 166.961-85.417
	C 418.49,120.287, 351.507,54.299, 276.74,50.404z"  />
<glyph unicode="&#xe02a;" d="M 68.147,104.535c-37.598,0.00-68.146-30.667-68.146-68.038c0.00-37.577, 30.55-67.901, 68.146-67.901
		c 37.733,0.00, 68.247,30.324, 68.247,67.901C 136.393,73.868, 105.882,104.535, 68.147,104.535zM 0.078,306.035l0.00-98.129 c 63.892,0.00, 123.979-24.986, 169.229-70.256c 45.192-45.159, 70.141-105.518, 70.141-169.65l 98.561,0.00 
		C 338.008,154.41, 186.368,306.035, 0.078,306.035zM 0.194,480.00l0.00-98.178 c 227.891,0.00, 413.378-185.667, 413.378-413.822L 512.00-32.00 C 512.00,250.235, 282.373,480.00, 0.194,480.00z"  />
<glyph unicode="&#xe028;" d="M 416.00,416.00L 96.00,416.00 c-52.80,0.00-96.00-43.20-96.00-96.00l0.00-192.00 c0.00-52.80, 43.20-96.00, 96.00-96.00l 320.00,0.00 c 52.80,0.00, 96.00,43.20, 96.00,96.00L 512.00,320.00 C 512.00,372.80, 468.80,416.00, 416.00,416.00z
	 M 192.00,96.00L 192.00,352.00 l 160.00-128.00L 192.00,96.00z"  />
<glyph unicode="&#xe000;" d="M0.00,325.815l 20.797-27.272c0.00,0.00, 42.885,33.804, 57.18,16.901c 14.294-16.901, 68.868-220.978, 87.085-258.623
	c 15.90-33.015, 59.759-76.66, 107.857-45.491c 48.068,31.17, 207.92,167.643, 236.533,328.808
	c 28.59,161.113-192.36,127.363-215.765-13.005c 58.495,35.118, 89.718-14.269, 59.785-70.186
	c-29.879-55.862-57.18-92.296-71.476-92.296c-14.269,0.00-25.245,37.384-41.594,102.723c-16.899,67.551-16.796,189.23-87.058,175.435
	C 87.085,429.803,0.00,325.815,0.00,325.815z"  />
<glyph unicode="&#xe001;" d="M 1.313,267.051c-1.46,3.174, 0.736,5.612, 4.14,5.612l 17.512,0.00 c 1.461,0.00, 3.887-1.219, 4.381-2.921l 14.58-43.546
		l 0.266,0.00 l 24.802,46.708c 0.495,0.978, 1.714,2.185, 3.898,2.185l 1.943,0.00 c 2.196,0.00, 3.174-0.966, 3.898-2.185l 24.572-46.708l 0.254,0.00 
		l 14.579,43.546c 0.978,2.667, 2.921,2.921, 5.601,2.921l 15.822,0.00 c 3.416,0.00, 5.601-2.426, 4.381-5.612l-30.402-91.448
		c-0.483-1.46-1.955-2.679-4.381-2.679l-0.978,0.00 c-1.955,0.00-3.149,0.965-3.874,2.196l-30.655,56.665l-0.242,0.00 L 41.009,175.12
		c-0.736-1.231-1.956-2.196-3.898-2.196l-1.219,0.00 c-2.197,0.00-3.633,1.219-4.127,2.679L 1.313,267.051zM 157.223,267.051c-1.461,3.174, 0.748,5.612, 4.14,5.612l 17.512,0.00 c 1.472,0.00, 3.898-1.219, 4.393-2.921
		l 14.58-43.546l 0.266,0.00 l 24.814,46.708c 0.483,0.978, 1.702,2.185, 3.874,2.185l 1.956,0.00 c 2.185,0.00, 3.162-0.966, 3.898-2.185l 24.561-46.708
		l 0.266,0.00 l 14.574,43.546c 0.989,2.667, 2.92,2.921, 5.60,2.921l 15.823,0.00 c 3.403,0.00, 5.60-2.426, 4.368-5.612l-30.396-91.448
		c-0.483-1.46-1.943-2.679-4.369-2.679l-0.978,0.00 c-1.955,0.00-3.15,0.965-3.887,2.196l-30.644,56.665l-0.253,0.00 l-30.402-56.665
		c-0.725-1.231-1.943-2.196-3.887-2.196l-1.194,0.00 c-2.209,0.00-3.669,1.219-4.164,2.679L 157.223,267.051zM 313.113,267.051c-1.46,3.174, 0.736,5.612, 4.141,5.612l 17.512,0.00 c 1.473,0.00, 3.898-1.219, 4.394-2.921
		l 14.579-43.546l 0.254,0.00 l 24.826,46.708c 0.482,0.978, 1.701,2.185, 3.874,2.185l 1.955,0.00 c 2.185,0.00, 3.162-0.966, 3.887-2.185l 24.572-46.708
		l 0.266,0.00 l 14.579,43.546c 0.99,2.667, 2.922,2.921, 5.601,2.921l 15.823,0.00 c 3.403,0.00, 5.588-2.426, 4.369-5.612l-30.402-91.448
		c-0.483-1.46-1.955-2.679-4.369-2.679l-0.979,0.00 c-1.955,0.00-3.149,0.965-3.886,2.196l-30.644,56.665l-0.254,0.00 l-30.402-56.665
		c-0.724-1.231-1.955-2.196-3.886-2.196l-1.219,0.00 c-2.196,0.00-3.657,1.219-4.152,2.679L 313.113,267.051zM 490.94,213.065c 10.947,0.00, 20.204-9.257, 20.204-20.204c0.00-10.946-9.257-19.95-20.204-19.95
		c-10.946,0.00-19.938,9.004-19.938,19.95C 471.002,203.82, 479.994,213.065, 490.94,213.065z"  />
<glyph unicode="&#xe002;" d="M 256.00,479.938C 114.875,479.938, 0.062,365.125, 0.062,223.997c0.00-141.125, 114.813-255.935, 255.938-255.935
		c 141.129,0.00, 255.938,114.81, 255.938,255.935C 511.938,365.125, 397.129,479.938, 256.00,479.938z M 256.00-18.222
		c-133.561,0.00-242.218,108.66-242.218,242.222C 13.782,357.561, 122.439,466.218, 256.00,466.218c 133.562,0.00, 242.219-108.661, 242.219-242.218
		S 389.562-18.222, 256.00-18.222zM 360.96,230.862l-98.098,0.00 L 262.862,328.96 c0.00,3.784-3.079,6.862-6.862,6.862c-3.78,0.00-6.862-3.078-6.862-6.862l0.00-98.099 L 151.04,230.861 
		c-3.78,0.00-6.862-3.078-6.862-6.862c0.00-3.78, 3.078-6.858, 6.862-6.858l 98.099,0.00 l0.00-98.102 c0.00-3.777, 3.078-6.858, 6.862-6.858
		c 3.78,0.00, 6.862,3.074, 6.862,6.858l0.00,98.102 l 98.098,0.00 c 3.78,0.00, 6.862,3.078, 6.862,6.858C 367.822,227.784, 364.74,230.862, 360.96,230.862z"  />
<glyph unicode="&#xe003;" d="M 231.143,373.182l-73.588-20.663L 8.829,431.159
		c-5.651,2.99-9.054,0.362-7.607-5.866l 31.775-136.727c-0.057-0.842-0.034-131.61-0.022-171.751c0.00-6.397, 4.487-14.175, 10.038-17.362
		l 200.18-115.345c 5.539-3.21, 14.91-4.059, 20.935-1.922l 176.081,63.211c 6.024,2.159, 10.897,9.077, 10.897,15.486l 0.033,183.688
		l 58.486,105.284c 3.177,5.544, 1.085,12.293-4.657,15.085L 296.151,465.806c-5.754,2.781-12.954,0.509-16.074-5.069L 231.143,373.182z
		 M 293.879,444.962l 193.828-93.597l-51.252-89.561L 249.636,365.75L 293.879,444.962z M 255.943,289.438
		c-0.475,6.375-2.984,12.858-5.618,14.48l-4.781,2.939l0.00,38.569 l 170.938-95.117l-153.439-57.135L 255.943,289.438z M 225.762,351.134
		l0.00-34.669 l-42.865,22.642L 225.762,351.134z M 236.173,288.601l 6.873-92.816L 51.965,294.19L 27.616,398.853L 236.173,288.601z
		 M 52.892,116.59l-0.011,154.914l 191.375-98.542L 244.256,6.15 L 52.892,116.59z M 264.003,3.144l-0.022,169.31l 166.698,62.081l0.00-171.366 
		L 264.003,3.144z"  />
<glyph unicode="&#xe004;" d="M 489.072,104.914l-138.658,93.391c 6.08,18.019, 9.526,37.212, 9.526,57.236
	c0.00,99.034-80.579,179.606-179.60,179.606c-99.028,0.00-179.594-80.572-179.594-179.606c0.00-99.021, 80.566-179.60, 179.594-179.60
	c 42.584,0.00, 81.686,14.979, 112.51,39.815l 140.00-94.313c 8.406-5.649, 18.104-8.591, 28.013-8.591c 3.236,0.00, 6.498,0.308, 9.735,0.947
	c 13.193,2.572, 24.591,10.154, 32.073,21.28C 518.192,58.096, 512.075,89.406, 489.072,104.914z M 180.34,107.474
	c-81.662,0.00-148.086,66.425-148.086,148.08S 98.679,403.652, 180.34,403.652c 81.649,0.00, 148.092-66.431, 148.092-148.099
	C 328.433,173.898, 261.989,107.474, 180.34,107.474z M 476.556,52.692c-2.819-4.173-7.077-6.991-11.988-7.951
	c-4.96-0.997-9.944,0.05-14.104,2.868l-134.486,90.584c 8.21,9.478, 15.508,19.742, 21.625,30.794l 133.871-90.179
	c 4.172-2.818, 7.003-7.076, 7.963-12.00C 480.383,61.861, 479.374,56.877, 476.556,52.692z"  />
<glyph unicode="&#xe005;" d="M 496.585,59.249l-94.05,94.127c 17.34,31.427, 27.331,67.217, 27.331,105.496
	c0.00,118.051-96.079,214.053-214.149,213.977C 97.321,472.849, 1.204,376.846, 1.204,258.795c0.00-118.51, 96.079-214.513, 214.589-214.513
	c 43.791,0.077, 85.151,13.551, 119.525,36.364l 91.064-91.103c 9.99-9.952, 22.354-14.393, 35.293-14.393
	c 12.479,0.00, 24.957,4.44, 34.909,14.393C 515.533,8.989, 515.533,39.919, 496.585,59.249z M 66.89,258.795
	c0.00,81.763, 66.682,148.368, 148.827,148.368c 81.667,0.076, 148.425-66.528, 148.425-148.291c0.00-82.069-66.758-148.368-148.349-148.444
	C 133.647,110.428, 66.89,176.765, 66.89,258.795z"  />
<glyph unicode="&#xe006;" d="M 255.972,479.805C 114.734,479.805, 0.167,365.322, 0.167,224.00s 114.539-255.805, 255.805-255.805
	c 141.294,0.00, 255.861,114.482, 255.861,255.805S 397.294,479.805, 255.972,479.805z M 368.894,215.942l-170.972-98.708
	c-1.277-0.736-2.695-1.105-4.143-1.105c-1.447,0.00-2.865,0.369-4.17,1.105c-2.582,1.504-4.171,4.229-4.171,7.207L 185.438,321.856 
	c0.00,2.979, 1.589,5.675, 4.171,7.207c 2.582,1.476, 5.731,1.476, 8.285,0.00l 170.972-98.679c 2.582-1.504, 4.17-4.228, 4.17-7.207
	C 373.035,220.227, 371.475,217.445, 368.894,215.942z"  />
<glyph unicode="&#xe008;" d="M 255.992,478.306c 140.477,0.00, 254.312-113.864, 254.312-254.312c0.00-140.462-113.836-254.298-254.312-254.298
		c-140.434,0.00-254.298,113.836-254.298,254.298C 1.694,364.441, 115.559,478.306, 255.992,478.306zM 368.207,230.283l-169.951,98.083c-2.539,1.481-5.669,1.481-8.236,0.00c-2.567-1.495-4.146-4.216-4.146-7.164
		l0.00-196.265 c0.00-2.962, 1.58-5.642, 4.146-7.164c 1.297-0.705, 2.708-1.072, 4.146-1.072s 2.849,0.367, 4.118,1.072l 169.979,98.168
		c 2.537,1.494, 4.117,4.217, 4.117,7.15C 372.381,226.039, 370.801,228.817, 368.207,230.283z"  />
<glyph unicode="&#xe009;" d="M 398.926-23.348c-51.643,0.00-101.744,10.117-148.911,30.07c-45.558,19.272-86.472,46.859-121.608,81.998
					c-35.136,35.139-62.723,76.054-81.993,121.61C 26.462,257.50, 16.346,307.60, 16.346,359.243c0.00,26.919, 19.34,54.96, 35.564,73.744
					c 17.52,20.284, 35.279,34.443, 35.456,34.584c 3.107,2.471, 6.807,3.777, 10.698,3.777c 5.504,0.00, 10.694-2.722, 13.883-7.28
					l 90.566-128.382c 5.679-8.065, 4.628-20.305-2.345-27.287l-49.79-49.757c-6.25-6.291-6.252-16.504, 0.001-22.765l 118.764-118.816
					c 3.025-3.023, 7.052-4.69, 11.335-4.69c 4.287,0.00, 8.349,1.668, 11.438,4.698l 52.819,52.835c 4.094,4.021, 10.049,6.325, 16.343,6.325
					c 4.271,0.00, 8.266-1.077, 11.554-3.114l 121.957-75.972c 8.442-5.227, 11.519-16.635, 6.858-25.426
					c-0.127-0.238-12.793-23.989-31.605-47.425C 444.47-7.319, 420.608-23.348, 398.926-23.348z M 98.063,469.375
					c-3.44,0.00-6.715-1.159-9.47-3.351c-0.177-0.14-17.813-14.203-35.212-34.353c-15.996-18.523-35.062-46.125-35.062-72.429
					c0.00-51.377, 10.064-101.219, 29.912-148.142c 19.171-45.322, 46.615-86.028, 81.571-120.985
					c 34.956-34.959, 75.661-62.404, 120.982-81.575c 46.92-19.85, 96.764-29.916, 148.142-29.916c 50.344,0.00, 100.279,93.076, 100.777,94.017
					c 4.185,7.893, 1.423,18.133-6.154,22.825l-121.957,75.972c-2.975,1.842-6.611,2.817-10.514,2.817
					c-5.697,0.00-11.287-2.151-14.953-5.754l-52.819-52.837c-3.468-3.399-8.022-5.269-12.827-5.269c-4.81,0.00-9.331,1.872-12.73,5.269
					L 148.983,234.481c-7.019,7.028-7.02,18.491-0.002,25.555l 49.792,49.758c 6.325,6.333, 7.28,17.439, 2.127,24.755L 110.331,462.933
					C 107.509,466.968, 102.924,469.375, 98.063,469.375zM 398.926-28.33c-52.313,0.00-103.068,10.251-150.853,30.465c-46.149,19.521-87.597,47.468-123.19,83.063
					c-35.592,35.594-63.537,77.042-83.058,123.193c-20.213,47.785-30.462,98.539-30.462,150.852
					c0.00,28.453, 19.999,57.578, 36.776,77.001C 65.917,456.827, 84.086,471.328, 84.268,471.473C 88.263,474.65, 93.034,476.33, 98.063,476.33
					c 7.13,0.00, 13.846-3.517, 17.966-9.407l 90.555-128.365c 7.13-10.125, 5.859-24.918-2.89-33.679l-49.793-49.761
					c-4.311-4.338-4.314-11.396, 0.005-15.721l 118.761-118.813c 2.085-2.085, 4.858-3.231, 7.812-3.231c 2.974,0.00, 5.799,1.162, 7.95,3.273
					l 52.783,52.799c 5.048,4.961, 12.278,7.786, 19.866,7.786c 5.197,0.00, 10.101-1.335, 14.178-3.86l 121.967-75.979
					c 10.617-6.573, 14.491-20.928, 8.627-31.988c-0.534-1.003-13.188-24.623-32.121-48.211
					C 447.361-11.674, 422.194-28.33, 398.926-28.33z M 98.063,464.393c-2.302,0.00-4.505-0.784-6.368-2.267
					c-0.176-0.14-17.557-14.038-34.543-33.709c-15.443-17.884-33.851-44.40-33.851-69.173c0.00-50.706, 9.932-99.896, 29.518-146.201
					c 18.92-44.729, 46.006-84.902, 80.505-119.402c 34.50-34.502, 74.673-61.59, 119.40-80.511c 46.304-19.589, 95.495-29.521, 146.202-29.521
					c 39.271,0.00, 82.884,65.954, 96.375,91.367c 2.982,5.623, 1.019,12.915-4.375,16.256l-121.969,75.979
					c-2.176,1.349-4.904,2.064-7.879,2.064c-4.354,0.00-8.746-1.656-11.461-4.325l-52.788-52.806
					c-4.438-4.351-10.232-6.729-16.351-6.729c-6.14,0.00-11.912,2.389-16.252,6.728L 145.46,230.959
					c-8.955,8.965-8.959,23.583-0.013,32.587l 49.805,49.771c 4.61,4.616, 5.333,13.027, 1.575,18.363L 106.26,460.061
					C 104.359,462.779, 101.299,464.393, 98.063,464.393zM 398.926-25.839c-51.979,0.00-102.406,10.184-149.882,30.268c-45.853,19.396-87.034,47.163-122.399,82.531
					c-35.364,35.365-63.129,76.547-82.525,122.401c-20.082,47.477-30.265,97.904-30.265,149.882
					c0.00,27.686, 19.669,56.269, 36.17,75.372c 17.625,20.406, 35.613,34.763, 35.792,34.907c 3.551,2.824, 7.787,4.317, 12.247,4.317
					c 6.317,0.00, 12.27-3.119, 15.924-8.344l 90.561-128.375c 6.345-9.01, 5.171-22.684-2.618-30.482l-49.791-49.759
					c-5.281-5.315-5.284-13.951, 0.002-19.243l 118.765-118.814c 2.554-2.554, 5.953-3.961, 9.571-3.961c 3.63,0.00, 7.073,1.415, 9.694,3.985
					l 52.801,52.816c 4.569,4.49, 11.163,7.057, 18.104,7.057c 4.733,0.00, 9.184-1.205, 12.866-3.488l 121.962-75.973
					c 9.529-5.901, 13.004-18.782, 7.742-28.71c-0.529-0.99-13.104-24.445-31.863-47.816
					C 445.917-9.497, 421.401-25.839, 398.926-25.839z M 98.063,466.884c-2.871,0.00-5.61-0.971-7.919-2.809
					c-0.176-0.14-17.694-14.133-34.877-34.032C 39.548,411.841, 20.81,384.782, 20.81,359.243c0.00-51.042, 9.998-100.557, 29.715-147.172
					c 19.046-45.025, 46.311-85.465, 81.037-120.193c 34.729-34.73, 75.167-61.996, 120.191-81.043
					c 46.613-19.719, 96.128-29.719, 147.172-29.719c 13.825,0.00, 36.695,7.934, 67.14,45.728c 18.646,23.146, 31.313,46.732, 31.437,46.963
					c 3.582,6.759, 1.222,15.525-5.265,19.543l-121.964,75.975c-2.575,1.596-5.757,2.44-9.195,2.44c-5.059,0.00-9.996-1.885-13.207-5.04
					l-52.804-52.821c-3.952-3.873-9.126-5.998-14.589-5.998c-5.475,0.00-10.62,2.13-14.49,5.998L 147.222,232.72
					c-7.986,7.997-7.989,21.038-0.008,29.071l 49.798,49.765c 5.507,5.515, 6.339,15.187, 1.852,21.559L 108.296,461.497
					C 105.935,464.874, 102.111,466.884, 98.063,466.884zM 398.926-30.821c-52.647,0.00-103.729,10.315-151.823,30.662c-46.447,19.647-88.16,47.774-123.981,83.596
					c-35.82,35.821-63.944,77.537-83.591,123.984C 19.187,255.515, 8.872,306.595, 8.872,359.243c0.00,29.218, 20.328,58.886, 37.382,78.629
					C 64.065,458.494, 81.96,472.819, 82.713,473.419c 4.445,3.535, 9.753,5.402, 15.351,5.402c 7.941,0.00, 15.421-3.914, 20.007-10.47
					l 90.549-128.358c 7.677-10.902, 6.257-27.443-3.163-36.875l-49.795-49.763c-3.343-3.364-3.346-8.841, 0.006-12.198l 118.763-118.813
					c 1.611-1.611, 3.761-2.50, 6.048-2.50c 2.318,0.00, 4.522,0.909, 6.207,2.561l 52.765,52.782c 5.52,5.424, 13.391,8.516, 21.628,8.516
					c 5.661,0.00, 11.018-1.464, 15.49-4.234l 121.972-75.981c 11.705-7.247, 15.976-23.073, 9.511-35.271
					c-0.54-1.014-13.325-24.862-32.38-48.604C 448.81-13.853, 422.989-30.821, 398.926-30.821z M 98.063,461.902
					c-1.733,0.00-3.399-0.596-4.817-1.726c-0.171-0.136-17.436-13.965-34.209-33.389C 43.871,409.225, 25.792,383.25, 25.792,359.243
					c0.00-50.37, 9.865-99.234, 29.321-145.231c 18.796-44.433, 45.703-84.34, 79.973-118.61c 34.271-34.275, 74.178-61.183, 118.61-79.977
					c 45.994-19.458, 94.857-29.325, 145.23-29.325c 12.737,0.00, 34.052,7.61, 63.261,43.87c 18.354,22.783, 30.794,45.947, 30.917,46.178
					c 2.336,4.405, 0.738,10.346-3.49,12.966L 367.64,165.095c-1.777,1.102-4.051,1.687-6.562,1.687c-3.725,0.00-7.448-1.383-9.716-3.61
					l-52.771-52.79c-4.919-4.82-11.339-7.458-18.112-7.458c-6.804,0.00-13.202,2.648-18.012,7.455l-118.769,118.82
					c-9.921,9.934-9.929,26.13-0.019,36.104l 49.812,49.777c 3.806,3.812, 4.403,10.758, 1.299,15.165l-90.565,128.38
					C 102.785,460.683, 100.486,461.902, 98.063,461.902z"  />
<glyph unicode="&#xe00a;" d="M 511.427,353.872c0.00,0.645-0.092,1.354-0.202,2.109c-0.037,0.359-0.074,0.838-0.424,1.925l-0.313,1.041
		c-0.056,0.249-0.147,0.525-0.295,0.884l-1.253,2.754c-0.295,0.608-0.699,1.17-0.828,1.326c-0.222,0.396-0.516,0.792-0.793,1.151
		c-0.387,0.543-0.848,1.124-1.234,1.501l-81.207,81.272c-7.774,7.793-21.26,7.774-29.053-0.019
		c-7.922-7.995-7.922-21.011, 0.019-29.034l 45.597-45.559L 35.651,373.223 c-6.835,0.00-13.191-3.372-17.06-9.055
		c-2.284-3.491-3.463-7.452-3.463-11.486c0.00-5.453, 2.10-10.602, 5.969-14.489c 3.869-3.869, 9.046-5.997, 14.554-5.997l 405.788,0.00 
		l-45.615-45.596c-7.922-8.014-7.922-21.021, 0.019-29.034c 3.888-3.851, 9.046-5.951, 14.572-5.951c 5.453,0.00, 10.575,2.082, 14.462,5.932
		l 81.281,81.345c 0.461,0.488, 0.902,1.013, 0.829,1.041l 1.031,1.335l-2.395,2.377l0.00,0.00l 3.076-1.317l 0.94,1.805
		c 0.146,0.304, 0.312,0.645, 0.404,0.986c 0.258,0.507, 0.424,1.115, 0.627,1.842l-3.169,0.894l 3.519,0.258
		c 0.147,0.516, 0.203,0.967, 0.313,1.723l 0.11,1.17c 0.092,0.682, 0.11,1.372, 0.055,2.036L 511.427,353.872z M 504.739,362.963
		L 504.739,362.963L 504.739,362.963L 504.739,362.963zM 476.313,115.971L 70.544,115.971 l 45.615,45.596c 7.921,8.014, 7.921,21.002-0.019,29.034
		c-7.664,7.664-21.186,7.774-29.071,0.019L 6.027,109.467c-0.571-0.57-1.013-1.143-0.921-1.143l0.00,0.00
		c-0.295-0.294-0.571-0.626-1.271-1.657l-0.645-1.069c-0.276-0.46-0.479-0.92-0.718-1.399c-0.056-0.093-0.147-0.222-0.221-0.405
		l-0.258-0.59c-0.019-0.074-0.056-0.147-0.074-0.258c-0.276-0.627-0.498-1.289-0.516-1.547l-0.479-1.604
		c-0.092-0.424-0.166-0.829-0.239-1.492l-0.129-1.105c-0.092-0.682-0.111-1.363-0.055-2.026l 0.037-0.884
		c0.00-0.59, 0.074-1.18, 0.24-2.211l 0.203-1.031c 0.147-0.664, 0.313-1.254, 0.405-1.438c 0.147-0.59, 0.332-1.16, 0.405-1.216l 1.271-2.874
		c 0.258-0.442, 0.534-0.885, 0.903-1.438c 0.294-0.46, 0.608-0.884, 0.718-0.977c 0.442-0.645, 0.939-1.197, 1.069-1.271l 81.336-81.483
		c 3.887-3.888, 9.045-6.024, 14.536-6.024c 5.49,0.00, 10.63,2.137, 14.536,6.042c 7.921,7.996, 7.921,21.002-0.019,29.035l-45.596,45.559
		l 405.77,0.00 c 6.853,0.00, 13.228,3.371, 17.041,9.027c 2.321,3.482, 3.537,7.479, 3.537,11.533c0.00,5.434-2.138,10.593-6.006,14.461
		C 487.127,113.777, 481.822,115.971, 476.313,115.971z M 4.885,89.516L 4.885,89.516L 4.885,89.516L 4.885,89.516z"  />
<glyph unicode="&#xe00b;" d="M 511.419,191.596l-20.611,67.457l0.00,70.612 c0.00,6.309-5.116,11.415-11.414,11.415l-13.655,0.00 l-16.074,52.587
		c-0.893,2.898-2.888,5.329-5.552,6.756c-2.675,1.427-5.797,1.688-8.706,0.824l-196.921-60.167L 32.597,341.08 
		c-6.298,0.00-11.415-5.105-11.415-11.415l0.00-55.00 l-13.031-3.99c-2.887-0.87-5.317-2.882-6.732-5.552c-1.416-2.669-1.728-5.796-0.848-8.694
		l 20.611-67.441l0.00-70.628 c0.00-6.31, 5.117-11.415, 11.415-11.415l 13.666,0.00 l 16.086-52.615c 1.505-4.904, 6.019-8.07, 10.913-8.07
		c 1.104,0.00, 2.218,0.168, 3.344,0.49l 196.888,60.195l 205.911,0.00 c 6.299,0.00, 11.415,5.105, 11.415,11.415l0.00,54.989 l 13.03,4.002
		C 509.869,179.199, 513.259,185.576, 511.419,191.596z M 431.159,376.076l 10.713-34.997L 316.588,341.079 L 431.159,376.076z M 80.842,71.919
		l-10.713,35.024L 195.39,106.943 L 80.842,71.919z M 467.979,129.773L 44.00,129.773 L 44.00,318.25 l 423.979,0.00 L 467.979,129.773 zM 261.561,153.204c 31.853,0.00, 57.759,32.148, 57.759,71.671c0.00,39.506-25.906,71.649-57.759,71.649
		c-31.859,0.00-57.776-32.143-57.776-71.649C 203.784,185.353, 229.701,153.204, 261.561,153.204z M 261.561,273.694
		c 18.934,0.00, 34.93-22.361, 34.93-48.819c0.00-26.48-15.985-48.842-34.93-48.842c-19.274,0.00-34.947,21.916-34.947,48.842
		C 226.613,251.779, 242.287,273.694, 261.561,273.694z"  />
<glyph unicode="&#xe00c;" d="M 494.547,409.00L 17.469,409.00 C 7.998,409.00, 0.288,401.29, 0.288,391.834l0.00-335.668 c0.00-9.426, 7.71-17.166, 17.181-17.166l 477.078,0.00 
		c 9.455,0.00, 17.166,7.74, 17.166,17.166L 511.713,391.819 C 511.758,401.29, 504.018,409.00, 494.547,409.00z M 449.257,376.687L 256.00,240.346L 62.759,376.687
		L 449.257,376.687 z M 32.585,359.627l 210.726-148.649c 7.027-4.933, 18.38-4.933, 25.407,0.00L 479.43,359.627l0.00-288.344 L 32.601,71.283 L 32.601,359.627 L 32.585,359.627 z"  />
<glyph unicode="&#xe00d;" d="M 474.226-11.506c-1.084,53.189-3.105,152.189-200.725,235.729c-0.532,0.386-1.042,0.667-1.557,0.861l-6.15,2.383
	c-4.199,1.726-8.892,3.598-14.331,5.717c-53.526,21.965-96.708,46.715-128.405,73.588l 266.24,0.00 c-25.00-21.10-57.325-41.03-96.132-59.267
	c-2.307-1.084-4.65-2.175-7.023-3.255c-3.417-1.57-4.928-5.63-3.361-9.051c 1.111-2.42, 3.549-3.984, 6.214-3.984
	c 0.986,0.00, 1.941,0.209, 2.844,0.622c 2.40,1.108, 4.779,2.206, 7.135,3.304C 471.308,316.153, 473.204,409.402, 474.226,459.50l 0.007,0.309
	c 0.09,4.491, 0.181,8.735, 0.396,12.553c 0.201,3.754-2.681,6.988-6.432,7.203c-3.752,0.201-6.995-2.681-7.211-6.439
	c-0.222-3.942-0.312-8.197-0.417-13.348c-0.305-14.998-0.681-33.625-5.605-53.992L 57.244,405.786 c-5.137,20.673-5.509,39.13-5.811,53.992
	c-0.09,4.515-0.187,9.183-0.417,13.351c-0.208,3.616-3.192,6.446-6.794,6.446c-0.139,0.00-0.278-0.003-0.413-0.011
	c-3.755-0.215-6.641-3.449-6.436-7.203c 0.212-3.734, 0.299-7.874, 0.389-12.257l 0.014-0.604c 1.083-53.189, 3.102-152.19, 200.728-235.68
	c 0.528-0.386, 1.035-0.667, 1.549-0.861c 1.677-0.635, 3.313-1.274, 4.953-1.913l 1.094-0.427c 4.314-1.773, 9.076-3.678, 14.545-5.803
	c 54.833-22.527, 98.783-47.966, 130.681-75.626l-270.95,0.00 c 24.031,20.749, 55.058,40.38, 92.27,58.385l 5.894,2.861
	c 3.379,1.647, 4.797,5.745, 3.157,9.136c-1.139,2.333-3.553,3.84-6.151,3.84c-1.035,0.00-2.038-0.235-2.976-0.687l-5.884-2.862
	C 40.659,129.555, 38.784,37.80, 37.776-11.499c-0.094-4.605-0.181-8.962-0.403-12.865c-0.208-3.758, 2.678-6.988, 6.433-7.203
	c 0.128-0.007, 0.264-0.007, 0.396-0.007c 3.615,0.00, 6.606,2.827, 6.814,6.445c 0.233,4.175, 0.326,8.844, 0.417,13.353
	c 0.295,14.441, 0.664,32.37, 5.147,51.938l 398.668,0.00 c 4.667-19.847, 5.029-37.63, 5.32-51.946c 0.104-5.147, 0.195-9.405, 0.417-13.345
	c 0.208-3.618, 3.195-6.445, 6.814-6.445c 0.132,0.00, 0.264,0.00, 0.396,0.007c 3.751,0.215, 6.633,3.445, 6.432,7.203
	c-0.215,3.813-0.306,8.059-0.396,12.553L 474.226-11.506z M 451.42,53.818L 60.331,53.818 c 8.381,25.931, 23.232,49.41, 45.371,71.715l 300.24,0.00 
	C 428.018,103.222, 442.903,79.749, 451.42,53.818z M 108.116,320.421c-22.614,22.333-37.945,45.805-46.84,71.715l 389.742,0.00 
	c-8.78-26.046-24.168-49.323-47.014-71.712C 403.365,320.62, 108.116,320.421, 108.116,320.421z"  />
<glyph unicode="&#xe00e;" d="M 505.695,480.564L 6.301,480.564 c-3.79,0.00-6.866-3.078-6.866-6.867l0.00-499.396 c0.00-3.786, 3.076-6.866, 6.866-6.866l 499.395,0.00 
	c 3.79,0.00, 6.87,3.08, 6.87,6.866L 512.566,473.698 C 512.565,477.483, 509.485,480.564, 505.695,480.564z M 498.832,133.859l0.00-152.694 l-152.69,0.00 L 346.142,133.859 L 498.832,133.859 z
	 M 498.832,300.408l0.00-152.816 l-152.69,0.00 L 346.142,300.408 L 498.832,300.408 z M 498.832,466.831l0.00-152.692 l-152.69,0.00 L 346.142,466.831 L 498.832,466.831 z M 332.408,133.859l0.00-152.694 
	L 179.591-18.835 L 179.591,133.859 L 332.408,133.859 z M 332.408,300.408l0.00-152.816 L 179.591,147.592 L 179.591,300.408 L 332.408,300.408 z M 332.408,466.831l0.00-152.692 L 179.591,314.139 L 179.591,466.831 L 332.408,466.831 z
	 M 165.854,133.859l0.00-152.694 L 13.164-18.835 L 13.164,133.859 L 165.854,133.859 z M 165.854,300.408l0.00-152.816 L 13.164,147.592 L 13.164,300.408 L 165.854,300.408 z M 165.854,466.831l0.00-152.692 
	L 13.164,314.139 L 13.164,466.831 L 165.854,466.831 z"  />
<glyph unicode="&#xe00f;" d="M 352.223,309.922c-27.443,0.00-54.591-7.225-78.652-20.872L 180.164,450.835
	c-2.729,4.732-7.951,7.536-13.959,7.536c-5.993,0.00-11.215-2.818-13.959-7.536L 1.749,190.222c-2.833-4.97-2.833-11.141,0.00-16.11
	c 2.893-4.984, 8.233-8.07, 13.959-8.07l 177.303,0.00 c-0.608-5.814-0.92-11.141-0.92-16.258c0.00-88.296, 71.844-160.154, 160.131-160.154
	c 88.325,0.00, 160.154,71.829, 160.154,160.154C 512.377,238.078, 440.548,309.922, 352.223,309.922z M 234.014,198.262
	c 6.705,16.273, 16.896,31.242, 29.64,43.525l 25.138-43.525L 234.014,198.262 z M 352.223,21.85c-70.523,0.00-127.911,57.38-127.911,127.934
	c0.00,4.969, 0.386,10.176, 1.187,16.258l 91.418,0.00 c 8.871,0.00, 16.11,7.239, 16.11,16.125c0.00,3.798-1.335,7.492-3.59,10.103l-39.787,68.907
	c 19.196,10.814, 40.766,16.526, 62.572,16.526c 70.554,0.00, 127.934-57.365, 127.934-127.918
	C 480.156,79.229, 422.776,21.85, 352.223,21.85z M 247.143,270.388c-22.267-19.418-38.659-44.296-47.515-72.096L 43.642,198.292 
	L 166.205,410.574L 247.143,270.388z"  />
<glyph unicode="&#xe010;" d="M 510.049,11.711L 261.089,442.906c-1.058,1.833-3.015,2.96-5.131,2.96c-2.119,0.00-4.073-1.127-5.134-2.96L 1.497,11.026
	c-1.062-1.836-1.062-4.094,0.00-5.933c 1.061-1.833, 3.021-2.961, 5.134-2.961L 505.31,2.132 c 0.018,0.00, 0.036,0.00, 0.063,0.00
	c 3.277,0.00, 5.927,2.653, 5.927,5.927C 511.303,9.438, 510.833,10.704, 510.049,11.711z M 261.934,211.417l 114.145-197.424L 261.934,13.993 
	L 261.934,211.417 z M 250.073,13.987L 136.239,13.987 L 250.073,211.20L 250.073,13.987 z M 389.774,13.987L 261.191,236.395c-1.058,1.833-3.015,2.96-5.131,2.96
	c-2.12,0.00-4.076-1.127-5.134-2.96L 122.548,13.987L 16.902,13.987 L 255.961,428.082l 239.083-414.094L 389.774,13.988 z"  />
<glyph unicode="&#xe011;" d="M 457.745,216.275c-18.176,18.176-47.529,18.176-65.795,0.00l-89.446-89.424L 302.504,433.473 
	c0.00,25.719-20.812,46.529-46.529,46.529c-25.719,0.00-46.529-20.811-46.529-46.529l0.00-306.621 l-89.469,89.424
	c-18.222,18.176-47.62,18.176-65.796,0.00c-18.176-18.267-18.176-47.62,0.00-65.795L 223.077-18.37
	c 9.087-9.088, 20.992-13.632, 32.897-13.632c 11.904,0.00, 23.81,4.544, 32.897,13.632L 457.745,150.48
	C 476.012,168.655, 476.012,198.10, 457.745,216.275z"  />
<glyph unicode="&#xe012;" d="M 500.858,68.51L 425.75,68.51 c-6.223,0.00-11.28,5.059-11.28,11.259L 414.47,302.848 l-85.606,0.00 l0.00-164.488 
			c0.00-6.211-5.059-11.27-11.28-11.27l-40.549,0.00 c-6.243,0.00-11.274,5.059-11.274,11.27l0.00,51.819 l-54.084,0.00 l0.00-110.41 
			c0.00-6.20-5.047-11.259-11.27-11.259l-40.56,0.00 c-6.222,0.00-11.27,5.059-11.27,11.259L 148.577,257.378 L 106.779,341.00L 71.976,256.33l0.00-176.54 
			c0.00-6.222-5.047-11.28-11.27-11.28L 11.131,68.51 c-6.233,0.00-11.27,5.059-11.27,11.28s 5.037,11.259, 11.27,11.259l 38.306,0.00 L 49.437,258.553 
			c0.00,1.471, 0.275,2.926, 0.847,4.29l 45.057,109.643c 1.672,4.085, 5.587,6.82, 10.01,6.979c 4.307,0.318, 8.519-2.274, 10.487-6.227
			l 54.083-108.151c 0.783-1.561, 1.185-3.285, 1.185-5.042l0.00-168.995 l 18.031,0.00 l0.00,110.41 c0.00,6.222, 5.037,11.259, 11.27,11.259l 76.606,0.00 
			c 6.222,0.00, 11.28-5.037, 11.28-11.259l0.00-51.83 l 18.031,0.00 L 306.324,314.117 c0.00,6.227, 5.016,11.27, 11.259,11.27l 108.146,0.00 
			c 6.222,0.00, 11.28-5.042, 11.28-11.27l0.00-223.068 l 63.85,0.00 c 6.201,0.00, 11.28-5.037, 11.28-11.259C 512.117,73.568, 507.06,68.51, 500.858,68.51z
			"  />
<glyph unicode="&#xe013;" d="M 499.146,321.998L 206.033,321.998 l0.00,51.771 c0.00,5.951-4.816,10.762-10.762,10.762l-65.227,0.00 
		c-5.945,0.00-10.75-4.822-10.75-10.762l0.00-51.771 L 12.854,321.998 c-6.855,0.00-12.424-5.563-12.424-12.424c0.00-6.855, 5.569-12.424, 12.424-12.424
		l 106.441,0.00 l0.00-51.771 c0.00-5.951, 4.817-10.756, 10.75-10.756l 65.227,0.00 c 5.957,0.00, 10.762,4.817, 10.762,10.756l0.00,51.771 l 293.113,0.00 
		c 6.867,0.00, 12.424,5.569, 12.424,12.424C 511.57,316.435, 506.014,321.998, 499.146,321.998z M 184.521,256.152l-43.715,0.00 L 140.806,363.025 l 43.715,0.00 
		L 184.521,256.152 zM 499.146,150.839L 390.702,150.839 l0.00,51.783 c0.00,5.944-4.829,10.756-10.75,10.756l-65.227,0.00 
		c-5.944,0.00-10.773-4.823-10.773-10.756l0.00-51.783 L 12.854,150.839 c-6.855,0.00-12.424-5.558-12.424-12.425c0.00-6.854, 5.569-12.424, 12.424-12.424
		l 291.099,0.00 l0.00-51.771 c0.00-5.944, 4.829-10.749, 10.773-10.749l 65.227,0.00 c 5.945,0.00, 10.75,4.816, 10.75,10.749L 390.703,125.99 l 108.444,0.00 
		c 6.867,0.00, 12.424,5.569, 12.424,12.424C 511.57,145.281, 506.014,150.839, 499.146,150.839z M 369.179,84.993l-43.703,0.00 L 325.476,191.872 l 43.703,0.00 
		L 369.179,84.993 z"  />
<glyph unicode="&#xe015;" d="M 256.023,480.00C 159.094,479.952, 80.197,401.104, 80.197,304.174l0.00-160.06 c0.00-46.981, 18.316-91.131, 51.509-124.317
		c 33.226-33.192, 77.368-51.501, 124.317-51.47c 96.929,0.00, 175.779,78.857, 175.779,175.787L 431.802,304.173 C 431.803,401.102, 352.952,480.00, 256.023,480.00z
		 M 399.888,144.114c0.00-79.323-64.558-143.88-143.911-143.88c-38.40,0.00-74.512,14.964-101.694,42.146
		c-27.166,27.174-42.139,63.264-42.139,101.733L 112.144,304.172 c0.00,79.324, 64.524,143.88, 143.863,143.88
		c 79.323,0.00, 143.88-64.524, 143.88-143.881L 399.888,144.114L 399.888,144.114zM 269.338,371.617c-2.935,4.496-7.982,7.21-13.348,7.21c-5.396,0.00-10.411-2.714-13.329-7.21l-59.729-91.322
		c-4.827-7.383-2.745-17.25, 4.606-22.078c 7.384-4.836, 17.243-2.752, 22.088,4.60l 30.385,46.454l0.00-209.779 
		c0.00-8.819, 7.146-15.974, 15.979-15.974c 8.82,0.00, 15.966,7.154, 15.966,15.974L 271.956,309.315 l 30.385-46.50
		c 4.845-7.384, 14.704-9.435, 22.087-4.631c 4.702,3.085, 7.227,8.204, 7.227,13.37c0.00,3.006-0.853,6.027-2.587,8.74L 269.338,371.617z"  />
<glyph unicode="&#xe017;" d="M 511.919,224.06c-0.048,96.93-78.896,175.826-175.826,175.826l-160.06,0.00 
		c-46.981,0.00-91.131-18.316-124.317-51.509C 18.523,315.151, 0.215,271.009, 0.246,224.06c0.00-96.929, 78.857-175.779, 175.787-175.779
		l 160.06,0.00 C 433.021,48.28, 511.919,127.131, 511.919,224.06z M 176.033,80.195c-79.323,0.00-143.88,64.558-143.88,143.911
		c0.00,38.40, 14.964,74.512, 42.146,101.694c 27.174,27.166, 63.264,42.139, 101.733,42.139l 160.059,0.00 
		c 79.324,0.00, 143.881-64.524, 143.881-143.863c0.00-79.323-64.524-143.88-143.881-143.88L 176.033,80.195L 176.033,80.195zM 403.536,210.745c 4.496,2.935, 7.21,7.982, 7.21,13.348c0.00,5.396-2.714,10.411-7.21,13.329l-91.322,59.729
		c-7.383,4.827-17.25,2.745-22.078-4.606c-4.836-7.384-2.752-17.243, 4.60-22.088l 46.454-30.385L 131.41,240.072 
		c-8.819,0.00-15.974-7.146-15.974-15.979c0.00-8.82, 7.154-15.966, 15.974-15.966l 209.824,0.00 l-46.50-30.385
		c-7.384-4.845-9.435-14.704-4.631-22.087c 3.085-4.702, 8.204-7.227, 13.37-7.227c 3.006,0.00, 6.027,0.853, 8.74,2.587L 403.536,210.745z"  />
<glyph unicode="&#xe019;" d="M 0.082,224.105c 0.047-96.93, 78.896-175.826, 175.826-175.826l 160.06,0.00 c 46.981,0.00, 91.131,18.316, 124.317,51.509
		c 33.192,33.226, 51.501,77.368, 51.47,124.317c0.00,96.929-78.857,175.779-175.787,175.779l-160.06,0.00 
		C 78.979,399.885, 0.082,321.034, 0.082,224.105z M 335.968,367.97c 79.323,0.00, 143.88-64.558, 143.88-143.911
		c0.00-38.40-14.964-74.512-42.146-101.694c-27.174-27.166-63.264-42.139-101.733-42.139L 175.91,80.226 c-79.324,0.00-143.88,64.524-143.88,143.863
		c0.00,79.323, 64.524,143.88, 143.881,143.88L 335.968,367.97L 335.968,367.97zM 108.465,237.42c-4.496-2.935-7.21-7.982-7.21-13.348c0.00-5.396, 2.714-10.411, 7.21-13.329l 91.322-59.729
		c 7.383-4.827, 17.25-2.745, 22.078,4.606c 4.836,7.384, 2.752,17.243-4.60,22.088l-46.454,30.385l 209.779,0.00 
		c 8.819,0.00, 15.974,7.146, 15.974,15.979c0.00,8.82-7.154,15.966-15.974,15.966L 170.767,240.038 l 46.50,30.385
		c 7.384,4.845, 9.435,14.704, 4.631,22.087c-3.085,4.702-8.204,7.227-13.37,7.227c-3.006,0.00-6.027-0.853-8.74-2.587L 108.465,237.42z"  />
<glyph unicode="&#xe01b;" d="M 256.059-31.752c 96.93,0.048, 175.826,78.896, 175.826,175.826L 431.885,304.133 
		c0.00,46.981-18.316,91.131-51.509,124.317C 347.15,461.643, 303.008,479.952, 256.059,479.92C 159.13,479.92, 80.28,401.063, 80.28,304.133l0.00-160.059 
		C 80.279,47.146, 159.13-31.752, 256.059-31.752z M 112.195,304.133c0.00,79.323, 64.558,143.88, 143.911,143.88
		c 38.40,0.00, 74.511-14.964, 101.694-42.146c 27.166-27.174, 42.139-63.264, 42.139-101.733l0.00-160.058 
		c0.00-79.324-64.524-143.881-143.863-143.881c-79.323,0.00-143.88,64.524-143.879,143.881L 112.195,304.133L 112.195,304.133zM 242.744,76.631c 2.935-4.496, 7.982-7.21, 13.348-7.21c 5.396,0.00, 10.411,2.714, 13.329,7.21l 59.729,91.322
		c 4.827,7.383, 2.745,17.25-4.606,22.078c-7.384,4.836-17.243,2.752-22.088-4.60l-30.385-46.454L 272.071,348.756 
		c0.00,8.819-7.146,15.974-15.979,15.974c-8.82,0.00-15.966-7.154-15.966-15.974l0.00-209.824 l-30.385,46.50
		c-4.845,7.384-14.704,9.435-22.087,4.631c-4.702-3.085-7.227-8.204-7.227-13.37c0.00-3.006, 0.853-6.027, 2.587-8.74L 242.744,76.631z"  />
<glyph unicode="&#xe01c;" d="M 468.106,147.35l 43.74,214.15L 95.812,417.09L 62.525,439.345c 0.577,2.374, 1.475,4.635, 1.475,7.20
	C 64.00,464.182, 49.698,478.50, 32.061,478.50C 14.487,478.50, 0.153,464.182, 0.153,446.544c0.00-17.573, 14.334-31.892, 31.908-31.892
	c 2.213,0.00, 4.232,0.898, 6.317,1.283L 77.50,389.833l 64.907-256.143l 19.785,0.801l-17.702-55.799c-0.673,0.064-1.282,0.225-2.052,0.225
	c-30.208,0.00-54.645-24.50-54.645-54.708c0.00-30.305, 24.436-54.708, 54.645-54.708c 22.543,0.00, 41.72,13.532, 50.154,32.838l 172.895,0.00 
	c 8.017-19.306, 27.065-32.838, 49.257-32.838c 29.438,0.00, 53.361,23.858, 53.361,53.361c0.00,29.406-23.923,53.361-53.361,53.361
	c-25.206,0.00-46.114-17.573-51.694-41.047L 196.153,35.176 c-2.694,13.18-10.262,24.564-20.684,32.421l 21.614,68.369L 468.106,147.35z"  />
<glyph unicode="&#xe01e;" d="M 138.628,479.037c 5.883,0.00, 11.765-2.249, 16.28-6.753l 242.055-242.037c 4.458-4.487, 6.894-10.65, 6.726-16.973
		c-0.169-6.332-2.941-12.299-7.682-16.523L 146.628-25.231c-9.46-8.421-24.035-7.597-32.503,1.92
		c-8.449,9.47-7.606,24.017, 1.892,32.475l 231.171,205.778L 122.368,439.742c-8.991,9.002-8.991,23.577,0.00,32.561
		C 126.845,476.788, 132.728,479.037, 138.628,479.037z"  />
<glyph unicode="&#xe01f;" d="M 373.371-31.037c-5.883,0.00-11.765,2.249-16.28,6.753L 115.036,217.753
		c-4.458,4.487-6.894,10.65-6.726,16.973c 0.169,6.332, 2.941,12.299, 7.681,16.523L 365.371,473.231c 9.46,8.42, 24.035,7.597, 32.503-1.92
		c 8.449-9.47, 7.606-24.016-1.892-32.475L 164.811,233.059l 224.821-224.801c 8.991-9.002, 8.991-23.577,0.00-32.561
		C 385.154-28.788, 379.271-31.037, 373.371-31.037z"  />
<glyph unicode="&#xe020;" d="M 101.998-31.336c-17.57,0.00-34.792,8.589-45.133,24.362c-16.213,24.89-9.29,58.278, 15.599,74.58
			l 239.248,156.429L 72.553,380.445c-24.889,16.30-31.90,49.58-15.60,74.49C 73.121,479.824, 106.512,486.834, 131.531,470.556l 307.998-201.475
			c 15.249-9.903, 24.363-26.905, 24.363-45.046c0.00-18.14-9.203-35.142-24.363-45.131L 131.444-22.573
			C 122.33-28.443, 112.12-31.336, 101.998-31.336z"  />
<glyph unicode="&#xe022;" d="M 278.747,455.756c-4.844,7.418-13.172,11.899-22.028,11.899c-8.907,0.00-17.183-4.478-21.997-11.899l-98.564-150.695
	c-7.964-12.183-4.529-28.464, 7.60-36.433c 12.184-7.98, 28.454-4.54, 36.449,7.591l 50.141,76.659L 230.351,6.706 
	c0.00-14.552, 11.793-26.36, 26.368-26.36c 14.557,0.00, 26.347,11.803, 26.347,26.36L 283.069,352.949 l 50.14-76.734
	c 7.995-12.185, 24.265-15.571, 36.448-7.643c 7.759,5.088, 11.926,13.537, 11.926,22.06c0.00,4.959-1.409,9.945-4.271,14.422L 278.747,455.756z"  />
<glyph unicode="&#xe025;" d="M 487.756,201.254c 7.418,4.844, 11.899,13.172, 11.899,22.027c0.00,8.907-4.478,17.183-11.899,21.997l-150.695,98.564
	c-12.183,7.964-28.464,4.529-36.433-7.60c-7.98-12.184-4.54-28.454, 7.591-36.449l 76.659-50.141L 38.705,249.646 
	c-14.552,0.00-26.36-11.793-26.36-26.368c0.00-14.557, 11.803-26.346, 26.36-26.346l 346.244,0.00 l-76.734-50.14
	c-12.185-7.995-15.571-24.265-7.643-36.448c 5.088-7.759, 13.537-11.926, 22.06-11.926c 4.959,0.00, 9.945,1.409, 14.422,4.271L 487.756,201.254z"  />
<glyph unicode="&#xe027;" d="M 24.244,246.747c-7.418-4.844-11.899-13.172-11.899-22.028c0.00-8.903, 4.478-17.179, 11.899-21.996l 150.695-98.564
	c 12.183-7.964, 28.464-4.529, 36.433,7.60c 7.98,12.184, 4.54,28.454-7.591,36.449l-76.659,50.141L 473.294,198.352 
	c 14.552,0.00, 26.36,11.793, 26.36,26.368c0.00,14.557-11.803,26.347-26.36,26.347L 127.051,251.07 l 76.734,50.14
	c 12.185,7.995, 15.571,24.265, 7.643,36.448c-5.088,7.759-13.537,11.926-22.06,11.926c-4.959,0.00-9.945-1.409-14.422-4.271L 24.244,246.747z"  />
<glyph unicode="&#xe02c;" d="M 233.255-7.756c 4.844-7.418, 13.172-11.899, 22.027-11.899c 8.907,0.00, 17.183,4.478, 21.997,11.899l 98.564,150.695
	c 7.964,12.183, 4.529,28.464-7.60,36.433c-12.184,7.98-28.454,4.54-36.449-7.591l-50.141-76.659L 281.647,441.295 
	c0.00,14.552-11.793,26.36-26.368,26.36c-14.553,0.00-26.346-11.803-26.346-26.36l0.00-346.244 l-50.14,76.734
	c-7.995,12.185-24.265,15.571-36.448,7.643c-7.759-5.088-11.925-13.537-11.925-22.06c0.00-4.959, 1.408-9.945, 4.27-14.422L 233.255-7.756z"  />
<glyph unicode="&#xe014;" d="M 511.219,223.978c0.00-140.721-114.476-255.194-255.196-255.194c-68.141-0.045-132.247,26.521-180.46,74.711
				C 27.351,91.707, 0.782,155.771, 0.782,223.976C 0.782,364.70, 115.301,479.172, 256.023,479.22C 396.744,479.22, 511.22,364.70, 511.219,223.978
				z M 47.163,223.978c0.00-55.841, 21.759-108.241, 61.177-147.683c 39.463-39.486, 91.89-61.199, 147.639-61.199
				c 115.206,0.00, 208.929,93.725, 208.929,208.883c0.00,115.185-93.722,208.863-208.882,208.863
				C 140.817,432.839, 47.163,339.114, 47.163,223.978zM 365.894,176.637c0.00-7.514-3.666-14.959-10.493-19.423c-10.719-6.962-25.056-3.984-32.063,6.733
			l-67.292,102.974l-67.339-102.974c-7.008-10.673-21.322-13.695-32.041-6.686c-10.674,7.006-13.696,21.344-6.688,32.064
			l 86.715,132.544c 4.261,6.527, 11.521,10.489, 19.355,10.489c 7.787,0.00, 15.138-3.962, 19.376-10.489l 86.714-132.544
			C 364.633,185.386, 365.894,180.964, 365.894,176.637z"  />
<glyph unicode="&#xe016;" d="M 255.976-31.218c-140.721,0.00-255.195,114.476-255.195,255.196
				c-0.045,68.141, 26.522,132.247, 74.712,180.46C 123.706,452.65, 187.769,479.22, 255.974,479.22c 140.724,0.00, 255.196-114.52, 255.244-255.241
				C 511.218,83.257, 396.698-31.219, 255.976-31.218z M 255.976,432.839c-55.84,0.00-108.242-21.759-147.682-61.177
				c-39.487-39.463-61.199-91.89-61.199-147.639c0.00-115.206, 93.724-208.93, 208.883-208.93c 115.185,0.00, 208.863,93.722, 208.863,208.883
				C 464.837,339.185, 371.112,432.839, 255.976,432.839zM 208.634,114.107c-7.513,0.00-14.958,3.666-19.422,10.493c-6.961,10.719-3.984,25.056, 6.733,32.063
			l 102.974,67.292l-102.974,67.339c-10.672,7.008-13.694,21.322-6.685,32.041c 7.006,10.674, 21.343,13.696, 32.065,6.688
			l 132.543-86.715c 6.527-4.261, 10.489-11.521, 10.489-19.355c0.00-7.787-3.962-15.139-10.489-19.377l-132.543-86.714
			C 217.384,115.368, 212.962,114.107, 208.634,114.107z"  />
<glyph unicode="&#xe018;" d="M 256.023,479.22c 140.72,0.00, 255.194-114.475, 255.194-255.195c 0.045-68.141-26.521-132.247-74.711-180.46
				c-48.213-48.212-112.276-74.781-180.481-74.781c-140.724,0.00-255.196,114.52-255.244,255.241
				C 0.781,364.745, 115.30,479.221, 256.023,479.22z M 256.023,15.164c 55.84,0.00, 108.241,21.759, 147.682,61.177
				c 39.486,39.463, 61.199,91.89, 61.199,147.639c0.00,115.206-93.725,208.929-208.883,208.929
				c-115.185,0.00-208.863-93.722-208.863-208.882C 47.162,108.818, 140.886,15.164, 256.023,15.164zM 303.363,333.895c 7.514,0.00, 14.959-3.666, 19.423-10.493c 6.962-10.719, 3.984-25.056-6.733-32.063
			L 213.08,224.047l 102.973-67.339c 10.673-7.008, 13.695-21.322, 6.686-32.041c-7.006-10.674-21.344-13.696-32.064-6.688
			L 158.13,204.693c-6.527,4.261-10.489,11.521-10.489,19.355c0.00,7.786, 3.962,15.138, 10.489,19.376l 132.543,86.714
			C 294.614,332.634, 299.036,333.895, 303.363,333.895z"  />
<glyph unicode="&#xe01a;" d="M 0.78,224.024C 0.78,364.745, 115.256,479.219, 255.977,479.219c 68.141,0.045, 132.247-26.522, 180.46-74.712
				c 48.212-48.213, 74.781-112.276, 74.781-180.481c0.00-140.724-114.52-255.196-255.241-255.244
				C 115.255-31.218, 0.779,83.302, 0.78,224.024z M 464.837,224.024c0.00,55.84-21.759,108.242-61.177,147.682
				c-39.463,39.487-91.89,61.199-147.639,61.199c-115.206,0.00-208.93-93.724-208.93-208.883c0.00-115.185, 93.722-208.863, 208.883-208.863
				C 371.183,15.163, 464.837,108.888, 464.837,224.024zM 146.105,271.366c0.00,7.513, 3.666,14.958, 10.493,19.422c 10.719,6.961, 25.056,3.984, 32.063-6.733
			l 67.292-102.974l 67.339,102.974c 7.008,10.672, 21.322,13.694, 32.041,6.685c 10.674-7.006, 13.696-21.343, 6.688-32.065
			l-86.715-132.543c-4.261-6.527-11.521-10.489-19.355-10.489c-7.788,0.00-15.139,3.962-19.377,10.489l-86.714,132.543
			C 147.366,262.616, 146.105,267.038, 146.105,271.366z"  />
<glyph unicode="&#xe007;" d="M 125.736,286.593c0.00,8.91, 4.348,17.739, 12.443,23.033c 12.711,8.255, 29.712,4.724, 38.022-7.985L 256.00,179.528
			l 79.854,122.112c 8.311,12.657, 25.286,16.24, 37.997,7.929c 12.657-8.309, 16.242-25.311, 7.931-38.025L 278.95,114.365
			c-5.053-7.74-13.662-12.439-22.953-12.439c-9.231,0.00-17.95,4.699-22.977,12.439L 130.19,271.544
			C 127.23,276.218, 125.736,281.461, 125.736,286.593z"  />
<glyph unicode="&#xe023;" d="M 318.591,354.268c 8.91,0.00, 17.739-4.348, 23.033-12.443c 8.255-12.711, 4.724-29.712-7.985-38.022
			l-122.111-79.799l 122.111-79.855c 12.657-8.311, 16.24-25.285, 7.929-37.997c-8.309-12.657-25.311-16.242-38.025-7.931
			L 146.364,201.053c-7.74,5.053-12.439,13.662-12.439,22.954c0.00,9.231, 4.699,17.95, 12.439,22.977l 157.178,102.831
			C 308.216,352.774, 313.459,354.268, 318.591,354.268z"  />
<glyph unicode="&#xe026;" d="M 193.41,93.733c-8.91,0.00-17.74,4.348-23.033,12.443c-8.255,12.711-4.724,29.712, 7.985,38.022
			l 122.111,79.799l-122.111,79.854c-12.657,8.311-16.241,25.286-7.929,37.997c 8.308,12.657, 25.311,16.242, 38.025,7.931
			l 157.178-102.833c 7.74-5.053, 12.439-13.662, 12.439-22.953c0.00-9.231-4.699-17.95-12.439-22.977L 208.458,98.188
			C 203.785,95.228, 198.542,93.733, 193.41,93.733z"  />
<glyph unicode="&#xe02b;" d="M 386.268,161.411c0.00-8.91-4.348-17.739-12.443-23.033c-12.711-8.255-29.712-4.724-38.022,7.985
			l-79.799,122.112l-79.854-122.112c-8.311-12.657-25.286-16.24-37.997-7.929c-12.657,8.309-16.242,25.311-7.931,38.025
			l 102.832,157.178c 5.053,7.74, 13.662,12.439, 22.953,12.439c 9.231,0.00, 17.95-4.699, 22.977-12.439L 381.813,176.46
			C 384.773,171.786, 386.268,166.543, 386.268,161.411z"  />
<glyph unicode="&#xe02d;" d="M 0.937,224.003A255.066,255.066 180.00 1 1 511.069,224.003A255.066,255.066 180.00 1 1 0.937,224.003zM 146.175,271.339c0.00,7.509, 3.664,14.949, 10.487,19.411c 10.712,6.958, 25.04,3.982, 32.044-6.729
				l 67.252-102.912l 67.298,102.912c 7.003,10.667, 21.31,13.688, 32.021,6.682c 10.667-7.002, 13.688-21.331, 6.685-32.045
				l-86.663-132.466c-4.258-6.523-11.514-10.482-19.343-10.482c-7.782,0.00-15.129,3.959-19.365,10.482l-86.662,132.466
				C 147.436,262.595, 146.175,267.015, 146.175,271.339z"  />
<glyph unicode="&#xe02e;" d="M 0.938,224.002A255.066,255.066 180.00 1 1 511.07,224.002A255.066,255.066 180.00 1 1 0.938,224.002zM 303.34,333.831c 7.509,0.00, 14.949-3.664, 19.411-10.487c 6.958-10.712, 3.982-25.04-6.729-32.044
				l-102.912-67.252l 102.912-67.298c 10.667-7.003, 13.688-21.31, 6.682-32.021c-7.002-10.667-21.331-13.688-32.045-6.685
				l-132.466,86.663c-6.523,4.258-10.482,11.514-10.482,19.343c0.00,7.782, 3.959,15.129, 10.482,19.365l 132.466,86.662
				C 294.596,332.57, 299.016,333.831, 303.34,333.831z"  />
<glyph unicode="&#xe02f;" d="M 0.937,224.002A255.066,255.066 180.00 1 1 511.069,224.002A255.066,255.066 180.00 1 1 0.937,224.002zM 208.667,114.174c-7.509,0.00-14.949,3.664-19.411,10.487c-6.958,10.712-3.982,25.04, 6.729,32.044
				l 102.912,67.252l-102.912,67.298c-10.667,7.003-13.688,21.31-6.682,32.021c 7.002,10.667, 21.331,13.688, 32.045,6.685
				l 132.466-86.663c 6.523-4.258, 10.482-11.514, 10.482-19.343c0.00-7.782-3.959-15.129-10.482-19.365l-132.466-86.662
				C 217.411,115.435, 212.991,114.174, 208.667,114.174z"  />
<glyph unicode="&#xe030;" d="M 0.937,224.002A255.066,255.066 180.00 1 1 511.069,224.002A255.066,255.066 180.00 1 1 0.937,224.002zM 365.832,176.666c0.00-7.509-3.664-14.949-10.487-19.411c-10.712-6.958-25.04-3.982-32.044,6.729
				l-67.252,102.912l-67.298-102.912c-7.003-10.667-21.31-13.688-32.021-6.682c-10.667,7.002-13.688,21.331-6.685,32.045
				l 86.663,132.466c 4.258,6.523, 11.514,10.482, 19.343,10.482c 7.782,0.00, 15.129-3.959, 19.365-10.482l 86.662-132.466
				C 364.571,185.41, 365.832,180.99, 365.832,176.666z"  />
<glyph unicode="&#x20;" horiz-adv-x="256" />
<glyph class="hidden" unicode="&#xf000;" d="M0,480L 512 -32L0 -32 z" horiz-adv-x="0" />
</font>
</defs>
</svg>
