<?xml version="1.0" encoding="UTF-8" standalone="no"?>
<svg width="55px" height="45px" viewBox="0 0 55 45" version="1.1" xmlns="http://www.w3.org/2000/svg" xmlns:xlink="http://www.w3.org/1999/xlink" xmlns:sketch="http://www.bohemiancoding.com/sketch/ns">
    <!-- Generator: Sketch 3.2.2 (9983) - http://www.bohemiancoding.com/sketch -->
    <title>Fill 2</title>
    <desc>Created with Sketch.</desc>
    <defs></defs>
    <g id="Page-1" stroke="none" stroke-width="1" fill="none" fill-rule="evenodd" sketch:type="MSPage">
        <path d="M0,39.7546875 C0.88080292,39.85875 1.77706204,39.9119866 2.68576642,39.9119866 C7.96054745,39.9119866 12.8152007,38.1105804 16.6684124,35.0885491 C16.6684127,35.0885489 27.0264794,14.018505 27.0264781,14.0185045 C26.8345803,13.1938393 26.7348175,12.333817 26.7348175,11.450692 C26.7348175,5.22803571 31.7759489,0.183013393 37.9939599,0.183013393 C41.232135,0.183013393 44.1581752,1.55149554 46.2120438,3.74142857 C48.7765693,3.23598214 51.1861314,2.29821429 53.3614416,1.00707589 C52.5207847,3.63816964 50.7356934,5.84638393 48.4110401,7.24098214 C50.6885219,6.96857143 52.8584124,6.36287946 54.8775547,5.46669643 C53.3680657,7.72633929 51.4591241,9.71095982 49.2595255,11.2996205 C49.2812044,11.7827679 49.2920438,12.2687277 49.2920438,12.7572991 C49.2920438,27.6472768 37.9676642,44.8169866 17.2587591,44.8169866 C10.9006387,44.8169866 4.98251825,42.9516964 0,39.7546875 Z" id="Fill-2" fill="#FF9900" sketch:type="MSShapeGroup"></path>
    </g>
</svg>