<?xml version="1.0" encoding="UTF-8" standalone="no"?>
<svg width="38px" height="34px" viewBox="0 0 38 34" version="1.1" xmlns="http://www.w3.org/2000/svg" xmlns:xlink="http://www.w3.org/1999/xlink" xmlns:sketch="http://www.bohemiancoding.com/sketch/ns">
    <!-- Generator: Sketch 3.2.2 (9983) - http://www.bohemiancoding.com/sketch -->
    <title>Fill 1</title>
    <desc>Created with Sketch.</desc>
    <defs></defs>
    <g id="Page-1" stroke="none" stroke-width="1" fill="none" fill-rule="evenodd" sketch:type="MSPage">
        <path d="M14.6722263,33.10452 C9.74551095,33.0135156 5.58759124,29.755837 4.15498175,25.2791406 C4.84228102,25.4107254 5.54764599,25.4812388 6.27308394,25.4812388 C7.30001825,25.4812388 8.29463504,25.3436272 9.2394708,25.0860825 C4.08874088,24.0510825 0.208029197,19.4968415 0.208029197,14.0373772 C0.208029197,13.9899665 0.208029197,13.9427566 0.208832117,13.8957477 C1.72695255,14.7396986 3.46286496,15.2465513 5.30857664,15.3050111 C2.28759124,13.2844307 0.299762774,9.83550217 0.299762774,5.92632806 C0.299762774,3.86135039 0.854981752,1.92574771 1.82410584,0.261551278 C7.37709854,7.07864949 15.6730657,11.564587 25.030292,12.0344754 C25.0302927,12.0344755 34.2737012,11.5296631 36.7832174,18.6205532 C36.7832174,18.6205532 38.816392,23.4796476 31.4270216,28.8429376 C24.0376511,34.2062275 14.672226,33.0135151 14.6722263,33.10452 Z" id="Fill-1" fill="#FF9900" sketch:type="MSShapeGroup"></path>
    </g>
</svg>