<?xml version="1.0" encoding="utf-8"?>
<!-- Generator: Adobe Illustrator 17.0.0, SVG Export Plug-In . SVG Version: 6.00 Build 0)  -->
<!DOCTYPE svg PUBLIC "-//W3C//DTD SVG 1.1//EN" "http://www.w3.org/Graphics/SVG/1.1/DTD/svg11.dtd">
<svg version="1.1" id="Layer_1" xmlns="http://www.w3.org/2000/svg" xmlns:xlink="http://www.w3.org/1999/xlink" x="0px" y="0px"
	 width="100px" height="39.47px" viewBox="0 0 100 39.47" enable-background="new 0 0 100 39.47" xml:space="preserve">
<g>
	<path fill="#FFFFFF" d="M20.127,11.994v2.37h0.141c4.257-2.564,8.653-2.768,11.281-2.768c7.092,0,9.505,2.025,10.428,2.768
		c1.628-0.943,5.175-2.768,11.203-2.768c12.062,0,12.062,4.759,12.062,6.683v11.212h-9.72V19.5c0-2.065,0-4.36-5.179-4.36
		c-2.552,0-5.178,0.777-6.098,1.923c-0.851,0.978-1.207,1.856-1.207,4.017v8.411h-9.717v-9.593c0-2.968,0.067-4.758-5.035-4.758
		c-2.556,0-5.179,0.675-6.173,1.687c-0.779,0.776-1.28,1.586-1.28,4.159v8.505h-9.711V11.994H20.127z"/>
	<path fill="#FFFFFF" d="M88.674,15.87h-7.051v7.007c0,2.477,0,3.287,2.884,3.287c1.364,0,2.575-0.159,3.865-0.405l0.302-0.034
		l0.911,3.559c-3.409,0.634-7.128,0.701-8.188,0.701c-3.182,0-7.281-0.472-8.794-1.775c-1.29-1.072-1.441-2.113-1.441-4.766V15.87
		h-4.776v-3.659h4.776V8.755L81.622,6.04v6.171h7.051V15.87z"/>
	<path fill="#FFFFFF" d="M6.366,39.383C2.5,33.551-0.061,26.623-0.061,19.65c0-8.229,3.237-14.939,6.507-19.65h3.908
		C7.455,6.425,5.482,11.881,5.482,19.82c0,9.107,3.229,16.127,4.702,19.308c0.041,0.048,0.129,0.213,0.129,0.255
		C10.313,39.383,6.366,39.383,6.366,39.383z"/>
	<path fill="#FFFFFF" d="M93.639,0.087c3.862,5.831,6.423,12.766,6.423,19.733c0,8.227-3.232,14.939-6.505,19.65h-3.908
		c2.899-6.434,4.874-11.887,4.874-19.82c0-9.113-3.234-16.121-4.706-19.312c-0.041-0.042-0.125-0.211-0.125-0.251
		C89.691,0.087,93.639,0.087,93.639,0.087z"/>
</g>
</svg>
