<?xml version="1.0" encoding="utf-8"?>
<!-- Generator: Adobe Illustrator 17.0.0, SVG Export Plug-In . SVG Version: 6.00 Build 0)  -->
<!DOCTYPE svg PUBLIC "-//W3C//DTD SVG 1.1//EN" "http://www.w3.org/Graphics/SVG/1.1/DTD/svg11.dtd">
<svg version="1.1" id="Layer_1" xmlns="http://www.w3.org/2000/svg" xmlns:xlink="http://www.w3.org/1999/xlink" x="0px" y="0px"
	 width="50px" height="40.965px" viewBox="0 0 50 40.965" enable-background="new 0 0 50 40.965" xml:space="preserve">
<path fill="#FFFFFF" d="M48.252,12.512c-1.074-2.488-2.546-4.678-4.377-6.509c-1.831-1.831-4.021-3.303-6.515-4.379
	c-5.054-2.172-10.923-2.159-15.948,0c-2.507,1.074-4.706,2.548-6.537,4.379c-1.833,1.833-3.299,4.027-4.356,6.515
	c-0.718,1.673-1.2,3.418-1.444,5.211l-4.395-4.41l-4.729,4.729l12.273,12.273l12.301-12.271l-4.729-4.729l-3.826,3.826
	c0.311-1.256,0.796-2.458,1.457-3.595c1.241-2.153,2.884-3.804,5.023-5.043c4.26-2.471,9.585-2.486,13.879,0.002
	c2.151,1.241,3.8,2.89,5.043,5.045c1.239,2.136,1.842,4.401,1.842,6.926s-0.603,4.79-1.844,6.93c-1.241,2.151-2.89,3.8-5.049,5.047
	c-4.202,2.447-9.71,2.538-14.184-0.221l-1.671-1.033l-3.338,5.791l1.587,0.968c3.266,1.993,6.861,3.003,10.683,3.003
	c2.763,0,5.443-0.547,7.968-1.63c2.486-1.072,4.675-2.535,6.504-4.349c1.835-1.818,3.309-4.012,4.384-6.521
	c1.081-2.52,1.628-5.207,1.628-7.985C49.883,17.717,49.336,15.037,48.252,12.512z"/>
</svg>
